<svg width="343" height="219" viewBox="0 0 343 219" fill="none" xmlns="http://www.w3.org/2000/svg">
<g clip-path="url(#clip0_4330_249)">
<rect x="0.865234" y="0.0958252" width="341.746" height="218.493" rx="6.72287" fill="url(#paint0_linear_4330_249)"/>
<path opacity="0.4" d="M69.489 102.62C44.3086 102.516 20.1137 112.401 2.20891 130.109C-15.6958 147.817 -25.8492 171.904 -26.0263 197.088C-26.0444 209.511 -23.582 221.812 -18.7832 233.27C-13.9844 244.728 -6.94611 255.113 1.91897 263.814C5.67346 267.503 10.7266 269.571 15.9902 269.571C21.2538 269.571 26.3069 267.503 30.0614 263.814C31.9089 261.995 33.3761 259.827 34.3776 257.436C35.3791 255.045 35.8946 252.479 35.8946 249.886C35.8946 247.294 35.3791 244.728 34.3776 242.336C33.3761 239.945 31.9089 237.778 30.0614 235.959C24.8956 230.877 20.7928 224.818 17.9923 218.134C15.1918 211.45 13.7496 204.276 13.7496 197.029C13.7496 189.782 15.1918 182.607 17.9923 175.924C20.7928 169.24 24.8956 163.18 30.0614 158.099C40.5619 147.766 54.7022 141.975 69.4326 141.975C84.1631 141.975 98.3033 147.766 108.804 158.099C113.97 163.18 118.072 169.24 120.873 175.924C123.673 182.607 125.116 189.782 125.116 197.029C125.116 204.276 123.673 211.45 120.873 218.134C118.072 224.818 113.97 230.877 108.804 235.959C106.957 237.777 105.489 239.944 104.488 242.335C103.486 244.726 102.971 247.292 102.971 249.884C102.971 252.476 103.486 255.042 104.488 257.432C105.489 259.823 106.957 261.99 108.804 263.808C112.558 267.498 117.611 269.565 122.875 269.565C128.139 269.565 133.192 267.498 136.946 263.808C145.833 255.118 152.894 244.739 157.714 233.282C162.535 221.824 165.016 209.519 165.015 197.088C164.838 171.902 154.683 147.814 136.776 130.105C118.869 112.396 94.6712 102.513 69.489 102.62V102.62Z" fill="url(#paint1_linear_4330_249)"/>
<path d="M317.384 -59.9581C295.886 -60.0564 275.226 -51.6328 259.937 -36.5352C244.648 -21.4376 235.979 -0.898879 235.831 20.5753C235.831 42.1804 244.423 62.9006 259.717 78.1777C275.011 93.4549 295.755 102.037 317.384 102.037C339.013 102.037 359.756 93.4549 375.051 78.1777C390.345 62.9006 398.937 42.1804 398.937 20.5753C398.789 -0.898879 390.12 -21.4376 374.831 -36.5352C359.542 -51.6328 338.883 -60.0564 317.384 -59.9581V-59.9581ZM317.384 63.1094C308.982 63.014 300.796 60.4382 293.857 55.7061C286.917 50.9739 281.534 44.297 278.385 36.5157C275.236 28.7344 274.461 20.1964 276.159 11.9765C277.857 3.75661 281.952 -3.77791 287.927 -9.6787C293.902 -15.5795 301.491 -19.5828 309.739 -21.1848C317.987 -22.7868 326.525 -21.9158 334.279 -18.6816C342.032 -15.4473 348.655 -9.99429 353.312 -3.00884C357.97 3.9766 360.455 12.1823 360.455 20.5753C360.423 26.1931 359.283 31.7496 357.101 36.9274C354.919 42.1053 351.738 46.8032 347.738 50.7529C343.739 54.7026 339 57.8267 333.792 59.9468C328.583 62.0669 323.008 63.1416 317.384 63.1094Z" fill="url(#paint2_linear_4330_249)"/>
<g opacity="0.6">
<path d="M93.8753 111.805C95.0205 110.66 95.6639 109.107 95.6639 107.487C95.6639 105.868 95.0205 104.315 93.8753 103.169" stroke="white" stroke-width="2.8012" stroke-linecap="round" stroke-linejoin="round"/>
<path d="M98.5739 114.671C100.201 112.63 101.086 110.096 101.086 107.486C101.085 104.876 100.199 102.343 98.5721 100.301" stroke="white" stroke-width="2.8012" stroke-linecap="round" stroke-linejoin="round"/>
<path d="M102.716 117.497C104.895 114.632 106.08 111.135 106.091 107.535C106.101 103.936 104.937 100.432 102.774 97.5546" stroke="white" stroke-width="2.8012" stroke-linecap="round" stroke-linejoin="round"/>
<path d="M107.342 94.6132C110.138 98.4766 111.601 103.146 111.508 107.914C111.416 112.683 109.773 117.291 106.828 121.043" stroke="white" stroke-width="2.8012" stroke-linecap="round" stroke-linejoin="round"/>
</g>
<rect x="37.5607" y="89.482" width="47.4803" height="34.4469" rx="7.00299" fill="url(#paint3_linear_4330_249)" stroke="url(#paint4_linear_4330_249)" stroke-width="0.560239"/>
<mask id="mask0_4330_249" style="mask-type:alpha" maskUnits="userSpaceOnUse" x="37" y="89" width="48" height="35">
<rect x="38.1209" y="90.0423" width="46.3598" height="33.3264" rx="6.44275" fill="#DCD59E" stroke="black" stroke-width="0.560239"/>
</mask>
<g mask="url(#mask0_4330_249)">
<path opacity="0.5" fill-rule="evenodd" clip-rule="evenodd" d="M62.4059 90.8722C61.9957 90.0367 60.8046 90.0367 60.3943 90.8722L56.1782 99.459C56.1782 99.459 58.267 105.767 56.1782 112.962L60.375 122.473C60.7681 123.363 62.0321 123.363 62.4252 122.473L66.622 112.962C66.622 112.962 64.5333 109.052 66.622 99.459L62.4059 90.8722Z" stroke="#BFB985" stroke-width="0.728311" stroke-linejoin="bevel"/>
<path opacity="0.5" d="M37.3794 99.4131H56.0458" stroke="#BFB985" stroke-width="0.728311" stroke-linejoin="bevel"/>
<path opacity="0.5" d="M66.1787 99.4131H85.3784" stroke="#BFB985" stroke-width="0.728311" stroke-linejoin="bevel"/>
<path opacity="0.5" d="M37.3794 112.858H56.0458" stroke="#BFB985" stroke-width="0.728311" stroke-linejoin="bevel"/>
<path opacity="0.5" d="M66.1787 112.858H85.3784" stroke="#BFB985" stroke-width="0.728311" stroke-linejoin="bevel"/>
</g>
<path fill-rule="evenodd" clip-rule="evenodd" d="M69.6128 26.4429C69.8713 26.1773 70.0743 25.8629 70.21 25.5181C70.3457 25.1732 70.4114 24.8048 70.4034 24.4343C70.3953 24.0638 70.3135 23.6986 70.1629 23.36C70.0122 23.0214 69.7957 22.7161 69.5259 22.4621C67.8193 20.8443 65.6783 19.759 63.3647 19.3388C61.051 18.9186 58.6651 19.1817 56.4986 20.0959C54.3321 21.0102 52.479 22.5359 51.1659 24.4867C49.8528 26.4374 49.1367 28.7284 49.105 31.0797C49.1367 33.431 49.8528 35.7221 51.1659 37.6728C52.479 39.6235 54.3321 41.1493 56.4986 42.0635C58.6651 42.9778 61.051 43.2409 63.3647 42.8206C65.6783 42.4004 67.8193 41.3151 69.5259 39.6974C69.7957 39.4433 70.0122 39.1381 70.1629 38.7995C70.3135 38.4609 70.3953 38.0957 70.4034 37.7251C70.4114 37.3546 70.3457 36.9862 70.21 36.6414C70.0743 36.2965 69.8713 35.9821 69.6128 35.7165C69.0872 35.1774 68.3709 34.8664 67.6181 34.8505C66.8654 34.8345 66.1365 35.1149 65.5885 35.6312C64.3729 36.7783 62.7583 37.4069 61.087 37.3836C59.4157 37.3603 57.8192 36.687 56.6361 35.5064C56.0538 34.9256 55.5919 34.2356 55.2768 33.476C54.9616 32.7164 54.7994 31.9021 54.7994 31.0797C54.7994 30.2573 54.9616 29.443 55.2768 28.6834C55.5919 27.9238 56.0538 27.2338 56.6361 26.653C57.8192 25.4724 59.4157 24.7991 61.087 24.7758C62.7583 24.7525 64.3729 25.3811 65.5885 26.5282C66.1365 27.0446 66.8655 27.325 67.6183 27.3089C68.3711 27.2928 69.0874 26.9815 69.6128 26.4421V26.4429ZM22.831 23.0757C25.3915 20.5439 28.8514 19.1307 32.4523 19.1459C36.0532 19.1307 39.5132 20.5439 42.0737 23.0757C44.6342 25.6076 46.0863 29.0514 46.1116 32.6523C46.1117 34.4294 45.7567 36.1886 45.0674 37.8266C44.3781 39.4646 43.3685 40.9483 42.0978 42.1907C41.5609 42.7182 40.8383 43.0138 40.0856 43.0138C39.3329 43.0138 38.6104 42.7182 38.0735 42.1907C37.8093 41.9307 37.5995 41.6207 37.4563 41.2789C37.313 40.937 37.2393 40.5701 37.2393 40.1994C37.2393 39.8288 37.313 39.4618 37.4563 39.12C37.5995 38.7781 37.8093 38.4682 38.0735 38.2082C38.8123 37.4816 39.3991 36.6152 39.7996 35.6596C40.2002 34.7039 40.4064 33.678 40.4064 32.6418C40.4064 31.6056 40.2002 30.5797 39.7996 29.624C39.3991 28.6683 38.8123 27.8019 38.0735 27.0754C36.5718 25.598 34.5496 24.7701 32.4431 24.7701C30.3365 24.7701 28.3143 25.598 26.8127 27.0754C26.0738 27.8019 25.4871 28.6683 25.0865 29.624C24.686 30.5797 24.4797 31.6056 24.4797 32.6418C24.4797 33.678 24.686 34.7039 25.0865 35.6596C25.4871 36.6152 26.0738 37.4816 26.8127 38.2082C27.0768 38.4682 27.2866 38.7781 27.4299 39.12C27.5731 39.4618 27.6468 39.8288 27.6468 40.1994C27.6468 40.5701 27.5731 40.937 27.4299 41.2789C27.2866 41.6207 27.0768 41.9307 26.8127 42.1907C26.2758 42.7182 25.5532 43.0138 24.8005 43.0138C24.0478 43.0138 23.3252 42.7182 22.7884 42.1907C21.521 40.9468 20.5148 39.4623 19.8287 37.8244C19.1426 36.1865 18.7905 34.4281 18.793 32.6523C18.8183 29.0514 20.2704 25.6076 22.831 23.0757ZM84.801 19.1461C81.6184 19.1315 78.5599 20.3799 76.2966 22.6174C74.0333 24.8549 72.75 27.8988 72.728 31.0813C72.728 34.2833 74 37.3541 76.2641 39.6182C78.5282 41.8823 81.599 43.1543 84.801 43.1543C88.0029 43.1543 91.0737 41.8823 93.3378 39.6182C95.6019 37.3541 96.8739 34.2833 96.8739 31.0813C96.852 27.8988 95.5686 24.8549 93.3053 22.6174C91.0419 20.3799 87.9835 19.1315 84.801 19.1461ZM84.801 37.385C83.5572 37.3709 82.3453 36.9891 81.318 36.2878C80.2907 35.5865 79.4938 34.597 79.0276 33.4437C78.5614 32.2905 78.4468 31.0252 78.6981 29.807C78.9495 28.5888 79.5556 27.4721 80.4402 26.5976C81.3248 25.7231 82.4482 25.1298 83.6692 24.8924C84.8902 24.655 86.1542 24.784 87.302 25.2634C88.4498 25.7427 89.4302 26.5508 90.1197 27.5861C90.8092 28.6214 91.1771 29.8375 91.1771 31.0813C91.1723 31.9139 91.0036 32.7374 90.6806 33.5048C90.3576 34.2721 89.8866 34.9684 89.2946 35.5537C88.7025 36.1391 88.0009 36.6021 87.2299 36.9163C86.4589 37.2305 85.6335 37.3898 84.801 37.385ZM113.405 19.1461C109.804 19.1311 106.344 20.5444 103.784 23.0762C101.223 25.608 99.7716 29.0518 99.7463 32.6524C99.7437 34.4286 100.096 36.1873 100.782 37.8255C101.468 39.4637 102.475 40.9484 103.742 42.1924C104.279 42.72 105.002 43.0156 105.755 43.0156C106.507 43.0156 107.23 42.72 107.767 42.1924C108.031 41.9325 108.241 41.6225 108.384 41.2807C108.527 40.9388 108.601 40.5719 108.601 40.2012C108.601 39.8306 108.527 39.4636 108.384 39.1218C108.241 38.7799 108.031 38.47 107.767 38.21C107.028 37.4834 106.441 36.6171 106.041 35.6615C105.64 34.7059 105.434 33.6801 105.434 32.644C105.434 31.6078 105.64 30.5821 106.041 29.6265C106.441 28.6709 107.028 27.8045 107.767 27.078C109.268 25.6007 111.29 24.7728 113.397 24.7728C115.503 24.7728 117.525 25.6007 119.027 27.078C119.765 27.8045 120.352 28.6709 120.753 29.6265C121.153 30.5821 121.359 31.6078 121.359 32.644C121.359 33.6801 121.153 34.7059 120.753 35.6615C120.352 36.6171 119.765 37.4834 119.027 38.21C118.763 38.4699 118.553 38.7798 118.409 39.1216C118.266 39.4634 118.193 39.8302 118.193 40.2008C118.193 40.5714 118.266 40.9383 118.409 41.2801C118.553 41.6219 118.763 41.9317 119.027 42.1916C119.564 42.7192 120.286 43.0148 121.039 43.0148C121.792 43.0148 122.514 42.7192 123.051 42.1916C124.322 40.9492 125.331 39.4653 126.021 37.8272C126.71 36.189 127.065 34.4297 127.065 32.6524C127.039 29.0515 125.587 25.6075 123.027 23.0756C120.466 20.5438 117.006 19.1306 113.405 19.1461ZM64.0228 31.065C64.0314 32.619 62.7642 33.8858 61.1924 33.8945C59.6206 33.9032 58.3395 32.6505 58.3309 31.0965C58.3223 29.5425 59.5895 28.2757 61.1612 28.267C62.733 28.2583 64.0142 29.511 64.0228 31.065Z" fill="white"/>
<path d="M142.926 28.9264H137.344V42.6234H139.785V37.7132H142.926C145.967 37.7132 147.267 35.5463 147.267 33.3198C147.267 31.133 145.967 28.9264 142.926 28.9264ZM142.806 35.5264H139.785V31.0933H142.866C144.266 31.0933 144.827 32.2463 144.827 33.3198C144.827 34.433 144.246 35.5264 142.806 35.5264Z" fill="white"/>
<path d="M157.946 37.8921C157.946 34.9897 155.845 33.1409 153.164 33.1409C150.503 33.1409 148.263 35.0095 148.263 37.9716C148.263 40.874 150.383 42.8222 153.184 42.8222C154.885 42.8222 156.525 42.1066 157.386 40.7548L155.845 39.5819C155.285 40.3373 154.325 40.7349 153.304 40.7349C151.924 40.7349 150.924 40.0788 150.664 38.7867H157.886C157.926 38.4487 157.946 38.1505 157.946 37.8921ZM150.664 37.1764C150.944 35.765 151.944 35.1686 153.204 35.1686C154.505 35.1686 155.485 35.9041 155.625 37.1764H150.664Z" fill="white"/>
<path d="M161.378 31.471C162.218 31.471 162.898 30.8547 162.898 30.0595C162.898 29.2445 162.218 28.6481 161.378 28.6481C160.558 28.6481 159.877 29.2445 159.877 30.0595C159.877 30.8547 160.558 31.471 161.378 31.471ZM157.537 47.156H158.757C161.378 47.156 162.538 45.5457 162.538 42.9614V33.3397L160.218 33.3397V42.9614C160.238 44.015 159.897 45.009 158.677 45.009H157.537V47.156Z" fill="white"/>
<path d="M169.675 42.8222C172.336 42.8222 174.657 40.8939 174.657 37.9517C174.657 35.0095 172.336 33.1409 169.675 33.1409C167.014 33.1409 164.713 35.0095 164.713 37.9517C164.713 40.8939 167.014 42.8222 169.675 42.8222ZM169.675 40.6752C168.235 40.6752 167.054 39.5819 167.054 37.9517C167.054 36.3614 168.235 35.2879 169.675 35.2879C171.115 35.2879 172.316 36.3614 172.316 37.9517C172.316 39.5819 171.115 40.6752 169.675 40.6752Z" fill="white"/>
<path d="M181.806 33.3397H179.825V29.9204H177.505V33.3397H175.824V35.1885H177.505V42.6234H179.825V35.1885H181.806V33.3397Z" fill="white"/>
<path d="M190.547 33.3397V34.5722C189.907 33.5981 188.607 33.1409 187.426 33.1409C184.965 33.1409 182.845 34.9897 182.845 37.9716C182.845 40.9337 184.985 42.8222 187.446 42.8222C188.587 42.8222 189.907 42.365 190.547 41.371V42.6234H192.868V33.3397H190.547ZM187.806 40.6554C186.366 40.6554 185.185 39.5023 185.185 37.9517C185.185 36.4011 186.366 35.2879 187.806 35.2879C189.147 35.2879 190.507 36.3216 190.507 37.9517C190.507 39.5819 189.227 40.6554 187.806 40.6554Z" fill="white"/>
<path d="M306.886 182.439C305.324 181.882 303.673 181.602 302.01 181.614C296.632 181.614 292.834 184.265 292.807 188.072C292.774 190.869 295.506 192.445 297.573 193.379C299.694 194.34 300.403 194.945 300.396 195.804C300.383 197.11 298.703 197.702 297.14 197.702C294.992 197.702 293.819 197.409 292.014 196.676L291.345 196.37L290.583 200.752C291.89 201.285 294.246 201.742 296.679 201.782C302.396 201.782 306.134 199.146 306.177 195.096C306.224 192.862 304.746 191.175 301.633 189.78C299.741 188.875 298.568 188.269 298.568 187.351C298.568 186.539 299.573 185.67 301.674 185.67C303.072 185.637 304.461 185.894 305.75 186.424L306.255 186.644L307.018 182.41L306.886 182.439V182.439ZM320.841 181.969H316.64C315.332 181.969 314.348 182.321 313.776 183.591L305.697 201.509H311.414L312.556 198.571L319.534 198.577C319.698 199.265 320.202 201.509 320.202 201.509H325.244L320.841 181.969V181.969ZM285.074 181.804H290.522L287.114 201.354H281.673L285.074 181.798V181.804V181.804ZM271.244 192.579L271.808 195.294L277.132 181.969H282.903L274.329 201.482H268.572L263.867 184.96C263.79 184.687 263.611 184.453 263.366 184.305C261.67 183.447 259.873 182.796 258.015 182.367L258.089 181.956H266.858C268.048 182.002 269.005 182.367 269.325 183.611L271.24 192.589V192.579H271.244ZM314.119 194.573L316.29 189.105C316.263 189.164 316.737 187.977 317.013 187.243L317.386 188.931L318.646 194.57H314.116V194.573H314.119Z" fill="white"/>
<path d="M24.8973 191.75V198.487C24.8973 199.32 24.6419 199.979 24.1309 200.463C23.629 200.947 22.9656 201.189 22.141 201.189C21.3163 201.189 20.6485 200.947 20.1375 200.463C19.6356 199.979 19.3846 199.32 19.3846 198.487H20.9308C20.9398 198.899 21.0429 199.226 21.2401 199.468C21.4463 199.71 21.7465 199.831 22.141 199.831C22.5354 199.831 22.8357 199.71 23.0418 199.468C23.248 199.217 23.3511 198.89 23.3511 198.487V191.75H24.8973ZM31.6532 201.189C30.7837 201.189 29.9814 200.988 29.2464 200.584C28.5203 200.172 27.9422 199.603 27.5119 198.877C27.0906 198.142 26.88 197.317 26.88 196.403C26.88 195.488 27.0906 194.668 27.5119 193.942C27.9422 193.216 28.5203 192.651 29.2464 192.248C29.9814 191.836 30.7837 191.629 31.6532 191.629C32.5316 191.629 33.3339 191.836 34.06 192.248C34.795 192.651 35.3732 193.216 35.7945 193.942C36.2158 194.668 36.4264 195.488 36.4264 196.403C36.4264 197.317 36.2158 198.142 35.7945 198.877C35.3732 199.603 34.795 200.172 34.06 200.584C33.3339 200.988 32.5316 201.189 31.6532 201.189ZM31.6532 199.858C32.2717 199.858 32.823 199.719 33.307 199.441C33.7911 199.155 34.1675 198.751 34.4365 198.231C34.7143 197.702 34.8533 197.093 34.8533 196.403C34.8533 195.712 34.7143 195.107 34.4365 194.587C34.1675 194.068 33.7911 193.669 33.307 193.391C32.823 193.113 32.2717 192.974 31.6532 192.974C31.0347 192.974 30.4834 193.113 29.9994 193.391C29.5153 193.669 29.1344 194.068 28.8565 194.587C28.5876 195.107 28.4531 195.712 28.4531 196.403C28.4531 197.093 28.5876 197.702 28.8565 198.231C29.1344 198.751 29.5153 199.155 29.9994 199.441C30.4834 199.719 31.0347 199.858 31.6532 199.858ZM43.5685 199.186H39.6558L38.9835 201.095H37.3835L40.7315 191.737H42.5063L45.8543 201.095H44.2408L43.5685 199.186ZM43.1383 197.935L41.6189 193.592L40.0861 197.935H43.1383ZM39.4272 190.971C39.499 190.451 39.6693 190.061 39.9382 189.801C40.2071 189.532 40.5432 189.397 40.9466 189.397C41.1169 189.397 41.2648 189.424 41.3903 189.478C41.5158 189.532 41.6682 189.613 41.8475 189.72C41.9819 189.81 42.094 189.877 42.1836 189.922C42.2822 189.967 42.3898 189.989 42.5063 189.989C42.6587 189.989 42.7842 189.944 42.8828 189.855C42.9904 189.756 43.0576 189.613 43.0845 189.424H43.945C43.8733 189.944 43.703 190.339 43.4341 190.608C43.1652 190.867 42.829 190.997 42.4256 190.997C42.2553 190.997 42.1029 190.971 41.9685 190.917C41.834 190.854 41.6861 190.769 41.5248 190.661C41.3634 190.563 41.2379 190.495 41.1483 190.46C41.0676 190.415 40.9735 190.392 40.8659 190.392C40.7136 190.392 40.5836 190.442 40.476 190.54C40.3774 190.639 40.3147 190.782 40.2878 190.971H39.4272ZM51.5723 201.189C50.7028 201.189 49.9006 200.988 49.1655 200.584C48.4395 200.172 47.8613 199.603 47.431 198.877C47.0097 198.142 46.7991 197.317 46.7991 196.403C46.7991 195.488 47.0097 194.668 47.431 193.942C47.8613 193.216 48.4395 192.651 49.1655 192.248C49.9006 191.836 50.7028 191.629 51.5723 191.629C52.4508 191.629 53.253 191.836 53.9791 192.248C54.7141 192.651 55.2923 193.216 55.7136 193.942C56.1349 194.668 56.3456 195.488 56.3456 196.403C56.3456 197.317 56.1349 198.142 55.7136 198.877C55.2923 199.603 54.7141 200.172 53.9791 200.584C53.253 200.988 52.4508 201.189 51.5723 201.189ZM51.5723 199.858C52.1908 199.858 52.7421 199.719 53.2261 199.441C53.7102 199.155 54.0867 198.751 54.3556 198.231C54.6335 197.702 54.7724 197.093 54.7724 196.403C54.7724 195.712 54.6335 195.107 54.3556 194.587C54.0867 194.068 53.7102 193.669 53.2261 193.391C52.7421 193.113 52.1908 192.974 51.5723 192.974C50.9538 192.974 50.4025 193.113 49.9185 193.391C49.4344 193.669 49.0535 194.068 48.7756 194.587C48.5067 195.107 48.3722 195.712 48.3722 196.403C48.3722 197.093 48.5067 197.702 48.7756 198.231C49.0535 198.751 49.4344 199.155 49.9185 199.441C50.4025 199.719 50.9538 199.858 51.5723 199.858ZM69.4006 191.75L65.8913 201.095H64.1165L60.5937 191.75H62.2341L65.0039 199.522L67.7871 191.75H69.4006ZM72.2153 191.75V201.095H70.6825V191.75H72.2153ZM72.8338 189.747L69.8623 191.213V190.083L72.8338 188.443V189.747ZM80.2649 191.75V193.001H77.7774V201.095H76.2446V193.001H73.7437V191.75H80.2649ZM86.0795 201.189C85.2101 201.189 84.4078 200.988 83.6728 200.584C82.9467 200.172 82.3685 199.603 81.9383 198.877C81.517 198.142 81.3063 197.317 81.3063 196.403C81.3063 195.488 81.517 194.668 81.9383 193.942C82.3685 193.216 82.9467 192.651 83.6728 192.248C84.4078 191.836 85.2101 191.629 86.0795 191.629C86.958 191.629 87.7603 191.836 88.4863 192.248C89.2214 192.651 89.7995 193.216 90.2208 193.942C90.6421 194.668 90.8528 195.488 90.8528 196.403C90.8528 197.317 90.6421 198.142 90.2208 198.877C89.7995 199.603 89.2214 200.172 88.4863 200.584C87.7603 200.988 86.958 201.189 86.0795 201.189ZM86.0795 199.858C86.698 199.858 87.2493 199.719 87.7334 199.441C88.2174 199.155 88.5939 198.751 88.8628 198.231C89.1407 197.702 89.2796 197.093 89.2796 196.403C89.2796 195.712 89.1407 195.107 88.8628 194.587C88.5939 194.068 88.2174 193.669 87.7334 193.391C87.2493 193.113 86.698 192.974 86.0795 192.974C85.461 192.974 84.9098 193.113 84.4257 193.391C83.9417 193.669 83.5607 194.068 83.2828 194.587C83.0139 195.107 82.8795 195.712 82.8795 196.403C82.8795 197.093 83.0139 197.702 83.2828 198.231C83.5607 198.751 83.9417 199.155 84.4257 199.441C84.9098 199.719 85.461 199.858 86.0795 199.858ZM97.215 201.095L95.0637 197.357H93.8939V201.095H92.3611V191.75H95.5881C96.3052 191.75 96.9103 191.876 97.4033 192.127C97.9052 192.378 98.2772 192.714 98.5193 193.135C98.7703 193.557 98.8958 194.027 98.8958 194.547C98.8958 195.157 98.7165 195.712 98.3579 196.214C98.0083 196.707 97.466 197.044 96.731 197.223L99.0437 201.095H97.215ZM93.8939 196.134H95.5881C96.1618 196.134 96.592 195.99 96.8789 195.703C97.1747 195.417 97.3226 195.031 97.3226 194.547C97.3226 194.063 97.1792 193.687 96.8923 193.418C96.6055 193.14 96.1707 193.001 95.5881 193.001H93.8939V196.134ZM109.983 199.186H106.07L105.398 201.095H103.798L107.146 191.737H108.921L112.269 201.095H110.655L109.983 199.186ZM109.553 197.935L108.033 193.592L106.501 197.935H109.553ZM115.257 199.858H118.417V201.095H113.725V191.75H115.257V199.858ZM127.753 191.75L124.244 201.095H122.469L118.946 191.75H120.586L123.356 199.522L126.14 191.75H127.753ZM130.568 192.987V195.73H133.795V196.981H130.568V199.845H134.198V201.095H129.035V191.737H134.198V192.987H130.568ZM139.165 201.189C138.538 201.189 137.973 201.082 137.471 200.867C136.969 200.643 136.575 200.329 136.288 199.925C136.001 199.522 135.857 199.051 135.857 198.514H137.498C137.534 198.917 137.691 199.249 137.968 199.509C138.255 199.769 138.654 199.899 139.165 199.899C139.694 199.899 140.106 199.773 140.402 199.522C140.698 199.262 140.846 198.93 140.846 198.527C140.846 198.213 140.752 197.958 140.563 197.761C140.384 197.563 140.156 197.411 139.878 197.304C139.609 197.196 139.232 197.079 138.748 196.954C138.139 196.793 137.641 196.631 137.256 196.47C136.879 196.3 136.557 196.04 136.288 195.69C136.019 195.34 135.884 194.874 135.884 194.292C135.884 193.754 136.019 193.283 136.288 192.88C136.557 192.476 136.933 192.167 137.417 191.952C137.901 191.737 138.461 191.629 139.098 191.629C140.003 191.629 140.743 191.858 141.316 192.315C141.899 192.763 142.222 193.382 142.285 194.171H140.59C140.563 193.83 140.402 193.539 140.106 193.297C139.811 193.055 139.421 192.934 138.937 192.934C138.497 192.934 138.139 193.046 137.861 193.27C137.583 193.494 137.444 193.817 137.444 194.238C137.444 194.525 137.529 194.762 137.7 194.951C137.879 195.13 138.103 195.273 138.372 195.381C138.641 195.488 139.008 195.605 139.474 195.73C140.093 195.901 140.595 196.071 140.98 196.241C141.375 196.412 141.706 196.676 141.975 197.035C142.253 197.384 142.392 197.855 142.392 198.446C142.392 198.921 142.262 199.37 142.002 199.791C141.751 200.212 141.379 200.553 140.886 200.813C140.402 201.064 139.828 201.189 139.165 201.189Z" fill="white"/>
</g>
<defs>
<linearGradient id="paint0_linear_4330_249" x1="-143.5" y1="43.0298" x2="372.351" y2="315.401" gradientUnits="userSpaceOnUse">
<stop stop-color="#00A5F0"/>
<stop offset="1" stop-color="#00D7D7"/>
</linearGradient>
<linearGradient id="paint1_linear_4330_249" x1="139.254" y1="279.751" x2="18.5344" y2="155.014" gradientUnits="userSpaceOnUse">
<stop stop-color="white"/>
<stop offset="1" stop-color="white" stop-opacity="0"/>
</linearGradient>
<linearGradient id="paint2_linear_4330_249" x1="274.516" y1="-122.779" x2="361.756" y2="88.721" gradientUnits="userSpaceOnUse">
<stop stop-color="white"/>
<stop offset="1" stop-color="white" stop-opacity="0"/>
</linearGradient>
<linearGradient id="paint3_linear_4330_249" x1="61.3008" y1="89.7621" x2="77.4622" y2="136.526" gradientUnits="userSpaceOnUse">
<stop stop-color="#DCD59E"/>
<stop offset="1" stop-color="#CBBB82"/>
</linearGradient>
<linearGradient id="paint4_linear_4330_249" x1="40.9688" y1="91.6911" x2="61.3008" y2="123.649" gradientUnits="userSpaceOnUse">
<stop stop-color="#FBF3C0"/>
<stop offset="1" stop-color="#CCBC84"/>
</linearGradient>
<clipPath id="clip0_4330_249">
<rect x="0.865234" y="0.0958252" width="341.746" height="218.493" rx="6.72287" fill="white"/>
</clipPath>
</defs>
</svg>
